<svg width="56" height="65" viewBox="0 0 56 65" fill="none" xmlns="http://www.w3.org/2000/svg">
<path d="M54.4364 1.80747C54.3934 1.30356 54.1512 0.834811 53.7684 0.506671C52.4364 0.0770648 49.7681 0.0770749 43.2681 0.0771006C32.2681 0.0770594 28.7681 0.0770711 17.7681 0.0770806C7.76813 0.0770711 1.76813 -0.318237 1.26813 0.681746C0.885317 1.00987 0.619433 1.30355 0.576463 1.80747L0.00615268 8.80748C-0.0368163 9.33873 0.146773 9.86608 0.510063 10.2606C0.873343 10.6512 1.38115 10.8778 1.91626 10.8778H2.57642L6.79522 63.0068C6.85772 64.0185 7.69366 64.8037 8.70542 64.8076H46.3074C47.3035 64.8076 48.1316 64.0419 48.2176 63.0459L52.4364 10.9169H53.0966C53.6396 10.9169 54.1552 10.6864 54.5185 10.2841C54.8818 9.88562 55.0614 9.34656 55.0068 8.80746L54.4364 1.80747ZM3.9874 7.08868L4.24912 3.89728H50.7691L51.0308 7.08868H3.9874ZM44.5064 60.9799H10.5064L6.4166 10.9179H48.5966L44.5064 60.9799Z" fill="white"/>
</svg>
